<?xml version="1.0" encoding="UTF-8"?>
<svg width="100%" height="350" viewBox="0 0 850 350" xmlns="http://www.w3.org/2000/svg">
  <defs>
    <linearGradient id="runGrad" x1="0%" y1="0%" x2="0%" y2="100%">
      <stop offset="0%" style="stop-color:#4a9eff;stop-opacity:0.4" />
      <stop offset="100%" style="stop-color:#4a9eff;stop-opacity:0" />
    </linearGradient>
  </defs>
  <rect width="850" height="350" fill="#1a1a2e"/>
  <!-- Grid -->
  <line x1="60" y1="60" x2="60" y2="290" stroke="#333" stroke-width="0.5"/>
  <line x1="790" y1="60" x2="790" y2="290" stroke="#333" stroke-width="0.5"/>
  <line x1="60" y1="290" x2="790" y2="290" stroke="#333" stroke-width="0.5"/>
<polygon points="60,290 60.0,258.722390645301 61.98982544389669,270.1775660459073 63.319078905750146,270.77522737115635 64.02370200457015,272.26938068427893 64.40182549176566,272.07016024252925 64.81956640576253,270.87483759203116 67.62687085221452,218.47986141186664 68.87756603446138,233.0229536595929 71.12947127240976,240.6929406669554 71.63629764037006,248.06409701169338 72.185335018377,260.01732351667386 74.19845622599036,254.23993070593332 76.1892888897798,249.85708098744044 76.80893187297076,248.26331745344305 77.39973117880112,244.27890861844955 79.20090527396462,245.27501082719792 80.33339741013309,249.65786054569077 81.26104954154542,253.7418796015591 81.99297107408505,256.5309657860546 82.98957346632807,258.2243395409268 84.00713637789023,257.4274577739281 85.64888127000329,254.04071026418364 86.63480002903887,251.45084452143786 88.08005613385171,244.1792983975747 89.7306459776756,237.10697271546124 92.39691746128267,226.34906886097878 92.94995787989738,226.4486790818536 93.42620974384022,225.65179731485492 96.75454139513212,245.37462104807275 99.15407174525512,238.70073624945863 100.86204455506854,244.07968817669988 102.06671453884212,253.34343871805976 103.96638551683426,247.9644867908185 105.08357746700548,251.65006496318753 106.98324809175557,251.5504547423127 108.88291775528182,240.29449978345605 111.0480022314363,244.6773495019489 113.21308578721914,253.14421827631008 116.2293391157445,267.18925941966216 117.69487803105423,275.9549588566479 118.38949939641343,281.2343005630143 119.53907130598864,287.0116933737549 120.78039452081566,290.0 123.79047966281033,285.0194889562581 124.62486906491596,283.72455608488525 126.06768064179839,268.1853616284106 127.65208999784392,251.45084452143786 129.7380591491489,244.57773928107406 131.84244379523722,262.7067994802945 133.54744869937537,270.1775660459073 136.16446741239,268.7830229536596 139.6038613869938,239.49761801645735 141.44420021613098,239.59722823733216 143.28454001120554,245.87267215244694 145.1398155882315,246.27111303594629 146.99509060647438,241.09138155045474 149.74371716798504,233.3217843222174 151.74330692641672,250.753572975314 153.74289508690651,270.376786487657 155.52692846463145,276.05456907752273 157.31096094480813,272.07016024252925 159.10733810888746,264.89822433954095 160.90371650678753,264.10134257254225 164.39599829294565,259.8181030749242 166.22496876133252,259.91771329579905 168.05393902120966,240.89216110870507 170.52023570043863,235.41359896058898 172.42898629633135,249.85708098744044 173.8353302137633,250.95279341706367 175.1937342348861,246.66955391944563 178.12018186206126,227.04634040710263 181.04662846420618,215.59116500649634 184.45707058328497,227.34517106972714 187.86751270235158,240.89216110870507 191.2779546532892,238.40190558683412 193.14203948926072,248.76136855781724 193.55838048871615,246.7691641403205 195.42972487743882,238.1030749242096 198.00583696171626,240.39411000433088 200.58194904600552,239.1987873538328 203.15806061437144,218.9779125162408 204.95496965945915,214.39584235599824 206.75187815585983,219.07752273711563 209.1503886292975,235.51320918146385 211.54889820302836,247.067994802945 212.90730223378915,250.95279341706367 214.35255659889594,249.06019922044175 216.18658401938654,235.41359896058898 218.6904958099457,240.89216110870507 220.5194662782905,261.9099177132958 222.34843657039488,259.8181030749242 225.81013439951025,263.50368124729323 228.60791218334668,270.07795582503246 231.40568996722865,275.75573841489825 234.20346775103118,256.23213512343006 237.00124615743383,233.3217843222174 239.71172835123832,241.09138155045474 241.58585385740176,246.96838458207014 243.4599783636632,246.0718925941966 245.30031719277744,237.0073624945864 247.14065702658266,238.70073624945863 250.57221948754923,268.7830229536596 253.15918862784716,270.1775660459073 255.06385459980243,260.51537462104807 256.9685215120975,244.57773928107406 259.08076100136145,251.45084452143786 260.56255407614987,266.1931572109138 262.08332326337495,283.72455608488525 264.6493862081168,288.90428757037677 267.21544999479624,286.11520138588133 268.398549229296,281.2343005630143 269.05607507187744,275.9549588566479 270.43817873747344,267.4880900822867 273.5257808522048,253.14421827631008 275.6776922989494,241.39021221307925 277.8296014896647,240.29449978345605 279.7292721143863,251.5504547423127 281.628941777941,251.65006496318753 282.74019448775164,247.9644867908185 284.6451995092074,253.34343871805976 285.8399403789259,244.07968817669988 287.54791318873936,238.70073624945863 290.3950073050743,246.27111303594629 293.24210032098824,225.65179731485492 293.80069736096647,226.4486790818536 297.01401685665246,237.70463404071026 298.6398383249186,244.1792983975747 300.08264998790685,251.45084452143786 302.78598174730314,257.52706799480296 304.7535634995598,256.5309657860546 306.38385636000277,249.65786054569077 307.5388339795961,245.27501082719792 309.3097973515323,244.27890861844955 309.92455182496604,248.26331745344305 310.5311997980898,249.85708098744044 312.5482005792196,254.23993070593332 314.53506622317525,257.62667821567777 315.0418925911356,248.06409701169338 315.59092998246683,240.6929406669554 317.34869121457655,233.91944564746643 319.1064533949496,218.47986141186664 321.8653180711143,270.87483759203116 322.3422487078952,272.6678215677783 322.7203721950908,272.26938068427893 323.3760091863869,270.77522737115635 326.68421867246934,259.0212213079255 327.22557108980857,253.64226938068427 328.5449532666461,242.18709398007795 330.44916663617823,230.1342572542226 331.5511254802443,225.8510177566046 332.7400855543186,223.9584235599827 333.7235462678628,226.847119965353 334.67373893865596,235.7124296232135 335.3745943927224,242.18709398007795 336.00933291016173,248.26331745344305 336.4862584175845,249.85708098744044 336.72709955546986,251.05240363793848 336.99124254048746,251.5504547423127 337.44298210774014,253.14421827631008 337.8234955312425,253.64226938068427 338.1855880367436,253.84148982243397 338.7886343740117,253.84148982243397 339.9342457966916,246.470333477696 340.7368522865518,236.01126028583803 341.59833129511253,214.29623213512343 342.18914512170556,198.45820701602423 343.9501419814253,155.1277609354699 345.8870843207711,81.11736682546558 346.2806460630429,65.97661325249024 346.79262494964604,61.693373754872226 348.10552183694386,90.67994802944995 348.6443789413851,98.25032481593763 349.36285544796874,107.51407535729751 349.7549855871806,116.08055435253357 350.3028197500953,102.93200519705499 350.9329412705397,91.277609354699 351.4795622454625,93.1702035513209 352.14499336592826,108.70939800779558 352.57487430177605,116.18016457340838 354.1941419402986,120.1645734084019 354.8055065382256,137.19792117799912 355.7039253321792,153.43438718059764 356.03740662827596,143.27414465136422 356.469476506588,135.5045474231269 357.1993682773226,118.57080987440449 357.55470881942324,120.86184495452576 358.21065000575817,128.1333910783889 359.13950239913896,161.3035946297098 359.9911244835582,150.94413165872672 361.5987844129242,155.32698137721957 362.34063647951535,173.55565179731485 362.99426361299993,165.48722390645298 364.21238690722055,145.16673884798612 364.8660140407051,132.01818969250758 365.5959159349092,140.2858380251191 367.2620335016312,152.63750541359894 369.0677599718456,180.32914681680379 370.5391858996577,210.31182330012993 372.37086853214277,204.83326115201385 374.24358727494644,217.58336942399308 375.8512677432427,216.18882633174533 376.7547918267538,216.38804677349503 377.6838218225871,227.34517106972714 378.69545510447153,226.6478995236033 379.6685939989651,217.28453876136857 381.1575161008057,198.15937635339975 381.98107338444714,198.15937635339975 383.6574990631085,196.36639237765263 384.83312110787386,204.83326115201385 385.64011577891756,185.90731918579473 386.23097412852076,166.98137721957556 386.74477991750973,168.8739714161975 387.0218874766794,165.08878302295363 387.6631202864292,154.1316587267215 388.7827147716886,152.5378951927241 390.38247799178095,136.8990905153746 391.9962958647386,156.32308358596794 392.9253399900916,191.18666089216111 393.74701496808865,181.52446946730186 394.7173271123095,187.50108271979207 396.1303427697993,199.85275010827198 397.51057170718366,210.61065396275444 397.9140114496731,209.81377219575575 398.36786873985733,214.39584235599824 398.8366510663264,218.9779125162408 399.6745560945927,227.94283239497616 400.42477667717424,232.62451277609352 401.40666263219265,243.5816370723257 402.2521283169998,252.3473365093114 403.0047263869103,255.13642269380685 403.5929529040075,252.74577739281074 404.96554952116173,252.3473365093114 406.4136533573867,245.87267215244694 407.7659063397407,240.29449978345605 409.0072829213132,236.90775227371157 409.65924446218276,241.68904287570376 411.65605935188137,205.03248159376352 412.1525406412672,201.74534430489388 412.58549181891266,206.32741446513643 413.06502556159063,212.90168904287572 413.8963674049999,227.54439151147682 415.2167953291296,242.98397574707667 416.69947929937786,245.7730619315721 419.6360880289271,249.85708098744044 421.98329226051345,241.4898224339541 423.1597720825601,238.50151580770898 424.47170420337164,234.51710697271545 425.6666702051762,237.40580337808575 426.47954218678126,236.2104807275877 427.02101471377415,231.62841056734516 427.3003175202348,237.8042442615851 427.8978019166212,238.30229536595928 429.92017456476435,234.81593763533996 431.3251659334342,238.6011260285838 434.815556358999,249.85708098744044 437.715445467334,246.0718925941966 439.23621489987954,242.98397574707667 440.5337442920049,225.65179731485492 441.33479632237334,212.90168904287572 441.86313286700073,206.32741446513643 442.2541300257019,201.74534430489388 442.77598535565846,205.03248159376352 444.7440735650171,241.68904287570376 445.3997620515952,240.79255088783023 446.66857816520735,240.29449978345605 448.02701975069385,245.87267215244694 449.4751235869188,252.3473365093114 450.8899205307307,252.74577739281074 451.5084394097856,255.13642269380685 452.2955876674095,252.3473365093114 453.0937062591126,243.5816370723257 454.03362217427764,233.91944564746643 454.8273823061944,227.94283239497616 455.6978600566362,218.9779125162408 456.1308108763207,212.80207882200085 456.5846681665049,207.12429623213512 456.965226500873,212.90168904287572 458.38668672747303,199.85275010827198 459.79970238496287,187.50108271979207 460.72839394409016,182.32135123430055 461.61072439496684,191.18666089216111 464.1370604303924,143.37375487223903 465.73443640690436,152.5378951927241 467.4867280158669,158.6141186660892 467.7508868784466,168.8739714161975 468.280713231661,166.98137721957556 468.8715715812643,185.90731918579473 469.6867294503474,204.83326115201385 470.823571413603,196.36639237765263 472.5392410253219,198.15937635339975 474.85856245192844,217.28453876136857 475.8031965877849,226.6478995236033 477.7754259835897,216.38804677349503 478.72078494073156,216.18882633174533 480.2862528790129,217.58336942399308 483.3920914611733,230.83152880034646 485.4367887535433,180.32914681680379 487.2974085921814,152.63750541359894 489.65817213817667,132.01818969250758 491.5596328901281,165.48722390645298 492.24740469325707,184.512776093547 494.587045299936,150.94413165872672 495.4386673843552,161.3035946297098 496.98691982768855,120.86184495452576 497.34218809939995,118.57080987440449 498.5325791937795,143.27414465136422 498.86606048987625,153.43438718059764 500.38487143315535,120.1645734084019 501.99237672874784,116.18016457340838 503.5933120492316,91.277609354699 504.2199219106531,94.36552620181897 504.79295483632603,116.08055435253357 506.0322647438199,98.25032481593763 506.4494716116279,97.15461238631443 507.831915926724,61.693373754872226 508.34389481332704,60.0 508.7725789040217,81.11736682546558 510.58901689323596,156.92074491121699 512.40545532815,193.5773061931572 513.0672382963506,217.78258986574275 515.8556404117919,253.84148982243397 516.45868674906,253.84148982243397 516.7942115541157,253.54265915980943 517.1563038846523,253.14421827631008 517.656510962506,251.5504547423127 517.9015889812322,251.05240363793848 518.1986698406183,250.45474231268946 518.6218290038246,248.26331745344305 520.032727351515,235.7124296232135 520.9541553078709,226.847119965353 521.9352950749176,225.95062797747943 523.0965286402918,225.8510177566046 524.1984874843579,230.1342572542226 526.1684737018567,243.5816370723257 527.4597972155707,253.64226938068427 527.9883640061648,259.0212213079255 531.2910772845139,271.47249891728023 531.9371855836539,272.26938068427893 532.340592132542,272.6678215677783 532.8175228395876,270.87483759203116 535.6035254902135,218.47986141186664 539.0359611538122,239.49761801645735 540.2055604645132,260.01732351667386 542.2186816721264,254.23993070593332 544.1392546359585,249.85708098744044 544.7764522074056,248.26331745344305 545.3436254683706,244.27890861844955 547.1635657774136,245.27501082719792 548.283126200428,249.65786054569077 549.2648322715979,253.7418796015591 549.9511543979495,256.5309657860546 551.9187361502061,257.52706799480296 554.6220679096023,251.45084452143786 556.0648795725906,244.1792983975747 557.7240014355579,237.10697271546124 560.8282859018719,226.4486790818536 561.425034971918,225.65179731485492 563.3520021546136,242.28670420095278 565.2789674479188,242.784755305327 567.0692127547536,238.50151580770898 568.8594587196776,244.07968817669988 570.0641287034512,253.34343871805976 573.0420973118232,251.65006496318753 574.9609735352142,251.5504547423127 576.8798490830948,240.29449978345605 579.3286488165741,245.97228237332178 581.7774485500822,256.33174534430486 584.2262476917443,267.18925941966216 585.619477772028,275.5565179731486 586.2401399530529,280.6366392377653 587.4578166109939,286.11520138588133 590.8113826887148,287.50974447812905 592.6366775284479,283.72455608488525 594.1181699886544,268.1853616284106 595.928721539512,250.2555218709398 597.7392723883985,244.57773928107406 599.8603591856038,262.7067994802945 601.9984614267465,271.9705500216544 604.1365642322376,268.7830229536596 607.5681266932041,238.70073624945863 609.4272627859651,237.70463404071026 611.2863988271206,245.87267215244694 614.5149099424751,238.6011260285838 617.7434204533566,233.3217843222174 620.26580002535,256.23213512343006 622.7881795974325,275.05846686877436 625.3105594400989,271.9705500216544 627.6720710413503,264.4997834560416 630.0335826426204,262.00952793417065 632.3950950433749,259.8181030749242 635.4496805669368,249.25941966219142 638.5042663063267,235.41359896058898 640.347168224041,249.06019922044175 641.8313370343861,250.95279341706367 643.1517249644504,247.067994802945 645.5317069061884,235.51320918146385 647.9116883420837,219.7747942832395 649.7270067218406,213.30012992637506 651.542324298561,218.9779125162408 654.1062462229224,239.1987873538328 656.6701681472609,240.39411000433088 659.2340906602115,238.1030749242096 661.2096671105983,248.76136855781724 661.613028111442,246.7691641403205 663.5392424179487,238.1030749242096 666.9340583385355,240.9917713295799 670.3288742591361,227.34517106972714 673.7236904866709,214.79428323949764 676.6732369264012,231.82763100909483 679.6227841461674,247.067994802945 680.9879879149211,250.95279341706367 682.4317159546035,249.06019922044175 684.3404665949431,235.41359896058898 687.3835460002922,249.25941966219142 690.4266265793802,259.8181030749242 693.9119563678789,264.10134257254225 695.6893011095968,266.29276743178866 697.4666462369978,271.9705500216544 699.2696414331956,275.85534863577305 701.0726366169049,269.6795149415331 703.0755854638438,242.68514508445213 705.0785358918935,233.3217843222174 708.291636874077,240.89216110870507 711.5047382003924,245.87267215244694 713.8854397229629,234.81593763533996 716.2661412455492,248.6617583369424 718.6468427416028,268.7830229536596 721.8597941544897,267.58770030316157 725.0727456868096,244.57773928107406 726.8696932679063,252.3473365093114 728.6666410402032,268.1853616284106 730.1871201441118,284.2226071892594 732.7298468090976,288.90428757037677 735.2725737382007,286.11520138588133 736.5328112745331,280.6366392377653 737.1640445862279,275.5565179731486 738.5825113175227,267.18925941966216 741.0166813405233,256.33174534430486 743.4508513635332,245.97228237332178 745.8850214623845,240.29449978345605 748.3429163200744,252.3473365093114 750.8008108133427,247.9644867908185 752.7441275950396,253.34343871805976 753.9487976001121,244.07968817669988 755.9801412488715,237.5054135989606 758.0114863364374,245.37462104807275 761.3452485527372,225.65179731485492 761.9419976227831,226.4486790818536 765.1227033641673,237.70463404071026 766.7433602809708,244.1792983975747 768.187089095021,251.05240363793848 770.8547726217961,257.52706799480296 772.6702161148405,256.5309657860546 774.4856602182323,249.65786054569077 775.6406378668408,244.27890861844955 777.3928143558065,242.784755305327 778.0323890696359,248.26331745344305 778.6520320832483,248.06409701169338 780.6428649114227,254.23993070593332 782.6559863531421,257.62667821567777 785.579534573644,196.16717193590296 786.2679627023817,173.45604157644001 786.8939467310576,148.05543525335645 787.5498789768012,129.62754439151146 788.0037282561279,122.7544391511477 788.6398909595313,109.3070593330446 790.0,135.2057167605024 790,290" fill="url(#runGrad)"/><polyline points="60.0,258.722390645301 61.98982544389669,270.1775660459073 63.319078905750146,270.77522737115635 64.02370200457015,272.26938068427893 64.40182549176566,272.07016024252925 64.81956640576253,270.87483759203116 67.62687085221452,218.47986141186664 68.87756603446138,233.0229536595929 71.12947127240976,240.6929406669554 71.63629764037006,248.06409701169338 72.185335018377,260.01732351667386 74.19845622599036,254.23993070593332 76.1892888897798,249.85708098744044 76.80893187297076,248.26331745344305 77.39973117880112,244.27890861844955 79.20090527396462,245.27501082719792 80.33339741013309,249.65786054569077 81.26104954154542,253.7418796015591 81.99297107408505,256.5309657860546 82.98957346632807,258.2243395409268 84.00713637789023,257.4274577739281 85.64888127000329,254.04071026418364 86.63480002903887,251.45084452143786 88.08005613385171,244.1792983975747 89.7306459776756,237.10697271546124 92.39691746128267,226.34906886097878 92.94995787989738,226.4486790818536 93.42620974384022,225.65179731485492 96.75454139513212,245.37462104807275 99.15407174525512,238.70073624945863 100.86204455506854,244.07968817669988 102.06671453884212,253.34343871805976 103.96638551683426,247.9644867908185 105.08357746700548,251.65006496318753 106.98324809175557,251.5504547423127 108.88291775528182,240.29449978345605 111.0480022314363,244.6773495019489 113.21308578721914,253.14421827631008 116.2293391157445,267.18925941966216 117.69487803105423,275.9549588566479 118.38949939641343,281.2343005630143 119.53907130598864,287.0116933737549 120.78039452081566,290.0 123.79047966281033,285.0194889562581 124.62486906491596,283.72455608488525 126.06768064179839,268.1853616284106 127.65208999784392,251.45084452143786 129.7380591491489,244.57773928107406 131.84244379523722,262.7067994802945 133.54744869937537,270.1775660459073 136.16446741239,268.7830229536596 139.6038613869938,239.49761801645735 141.44420021613098,239.59722823733216 143.28454001120554,245.87267215244694 145.1398155882315,246.27111303594629 146.99509060647438,241.09138155045474 149.74371716798504,233.3217843222174 151.74330692641672,250.753572975314 153.74289508690651,270.376786487657 155.52692846463145,276.05456907752273 157.31096094480813,272.07016024252925 159.10733810888746,264.89822433954095 160.90371650678753,264.10134257254225 164.39599829294565,259.8181030749242 166.22496876133252,259.91771329579905 168.05393902120966,240.89216110870507 170.52023570043863,235.41359896058898 172.42898629633135,249.85708098744044 173.8353302137633,250.95279341706367 175.1937342348861,246.66955391944563 178.12018186206126,227.04634040710263 181.04662846420618,215.59116500649634 184.45707058328497,227.34517106972714 187.86751270235158,240.89216110870507 191.2779546532892,238.40190558683412 193.14203948926072,248.76136855781724 193.55838048871615,246.7691641403205 195.42972487743882,238.1030749242096 198.00583696171626,240.39411000433088 200.58194904600552,239.1987873538328 203.15806061437144,218.9779125162408 204.95496965945915,214.39584235599824 206.75187815585983,219.07752273711563 209.1503886292975,235.51320918146385 211.54889820302836,247.067994802945 212.90730223378915,250.95279341706367 214.35255659889594,249.06019922044175 216.18658401938654,235.41359896058898 218.6904958099457,240.89216110870507 220.5194662782905,261.9099177132958 222.34843657039488,259.8181030749242 225.81013439951025,263.50368124729323 228.60791218334668,270.07795582503246 231.40568996722865,275.75573841489825 234.20346775103118,256.23213512343006 237.00124615743383,233.3217843222174 239.71172835123832,241.09138155045474 241.58585385740176,246.96838458207014 243.4599783636632,246.0718925941966 245.30031719277744,237.0073624945864 247.14065702658266,238.70073624945863 250.57221948754923,268.7830229536596 253.15918862784716,270.1775660459073 255.06385459980243,260.51537462104807 256.9685215120975,244.57773928107406 259.08076100136145,251.45084452143786 260.56255407614987,266.1931572109138 262.08332326337495,283.72455608488525 264.6493862081168,288.90428757037677 267.21544999479624,286.11520138588133 268.398549229296,281.2343005630143 269.05607507187744,275.9549588566479 270.43817873747344,267.4880900822867 273.5257808522048,253.14421827631008 275.6776922989494,241.39021221307925 277.8296014896647,240.29449978345605 279.7292721143863,251.5504547423127 281.628941777941,251.65006496318753 282.74019448775164,247.9644867908185 284.6451995092074,253.34343871805976 285.8399403789259,244.07968817669988 287.54791318873936,238.70073624945863 290.3950073050743,246.27111303594629 293.24210032098824,225.65179731485492 293.80069736096647,226.4486790818536 297.01401685665246,237.70463404071026 298.6398383249186,244.1792983975747 300.08264998790685,251.45084452143786 302.78598174730314,257.52706799480296 304.7535634995598,256.5309657860546 306.38385636000277,249.65786054569077 307.5388339795961,245.27501082719792 309.3097973515323,244.27890861844955 309.92455182496604,248.26331745344305 310.5311997980898,249.85708098744044 312.5482005792196,254.23993070593332 314.53506622317525,257.62667821567777 315.0418925911356,248.06409701169338 315.59092998246683,240.6929406669554 317.34869121457655,233.91944564746643 319.1064533949496,218.47986141186664 321.8653180711143,270.87483759203116 322.3422487078952,272.6678215677783 322.7203721950908,272.26938068427893 323.3760091863869,270.77522737115635 326.68421867246934,259.0212213079255 327.22557108980857,253.64226938068427 328.5449532666461,242.18709398007795 330.44916663617823,230.1342572542226 331.5511254802443,225.8510177566046 332.7400855543186,223.9584235599827 333.7235462678628,226.847119965353 334.67373893865596,235.7124296232135 335.3745943927224,242.18709398007795 336.00933291016173,248.26331745344305 336.4862584175845,249.85708098744044 336.72709955546986,251.05240363793848 336.99124254048746,251.5504547423127 337.44298210774014,253.14421827631008 337.8234955312425,253.64226938068427 338.1855880367436,253.84148982243397 338.7886343740117,253.84148982243397 339.9342457966916,246.470333477696 340.7368522865518,236.01126028583803 341.59833129511253,214.29623213512343 342.18914512170556,198.45820701602423 343.9501419814253,155.1277609354699 345.8870843207711,81.11736682546558 346.2806460630429,65.97661325249024 346.79262494964604,61.693373754872226 348.10552183694386,90.67994802944995 348.6443789413851,98.25032481593763 349.36285544796874,107.51407535729751 349.7549855871806,116.08055435253357 350.3028197500953,102.93200519705499 350.9329412705397,91.277609354699 351.4795622454625,93.1702035513209 352.14499336592826,108.70939800779558 352.57487430177605,116.18016457340838 354.1941419402986,120.1645734084019 354.8055065382256,137.19792117799912 355.7039253321792,153.43438718059764 356.03740662827596,143.27414465136422 356.469476506588,135.5045474231269 357.1993682773226,118.57080987440449 357.55470881942324,120.86184495452576 358.21065000575817,128.1333910783889 359.13950239913896,161.3035946297098 359.9911244835582,150.94413165872672 361.5987844129242,155.32698137721957 362.34063647951535,173.55565179731485 362.99426361299993,165.48722390645298 364.21238690722055,145.16673884798612 364.8660140407051,132.01818969250758 365.5959159349092,140.2858380251191 367.2620335016312,152.63750541359894 369.0677599718456,180.32914681680379 370.5391858996577,210.31182330012993 372.37086853214277,204.83326115201385 374.24358727494644,217.58336942399308 375.8512677432427,216.18882633174533 376.7547918267538,216.38804677349503 377.6838218225871,227.34517106972714 378.69545510447153,226.6478995236033 379.6685939989651,217.28453876136857 381.1575161008057,198.15937635339975 381.98107338444714,198.15937635339975 383.6574990631085,196.36639237765263 384.83312110787386,204.83326115201385 385.64011577891756,185.90731918579473 386.23097412852076,166.98137721957556 386.74477991750973,168.8739714161975 387.0218874766794,165.08878302295363 387.6631202864292,154.1316587267215 388.7827147716886,152.5378951927241 390.38247799178095,136.8990905153746 391.9962958647386,156.32308358596794 392.9253399900916,191.18666089216111 393.74701496808865,181.52446946730186 394.7173271123095,187.50108271979207 396.1303427697993,199.85275010827198 397.51057170718366,210.61065396275444 397.9140114496731,209.81377219575575 398.36786873985733,214.39584235599824 398.8366510663264,218.9779125162408 399.6745560945927,227.94283239497616 400.42477667717424,232.62451277609352 401.40666263219265,243.5816370723257 402.2521283169998,252.3473365093114 403.0047263869103,255.13642269380685 403.5929529040075,252.74577739281074 404.96554952116173,252.3473365093114 406.4136533573867,245.87267215244694 407.7659063397407,240.29449978345605 409.0072829213132,236.90775227371157 409.65924446218276,241.68904287570376 411.65605935188137,205.03248159376352 412.1525406412672,201.74534430489388 412.58549181891266,206.32741446513643 413.06502556159063,212.90168904287572 413.8963674049999,227.54439151147682 415.2167953291296,242.98397574707667 416.69947929937786,245.7730619315721 419.6360880289271,249.85708098744044 421.98329226051345,241.4898224339541 423.1597720825601,238.50151580770898 424.47170420337164,234.51710697271545 425.6666702051762,237.40580337808575 426.47954218678126,236.2104807275877 427.02101471377415,231.62841056734516 427.3003175202348,237.8042442615851 427.8978019166212,238.30229536595928 429.92017456476435,234.81593763533996 431.3251659334342,238.6011260285838 434.815556358999,249.85708098744044 437.715445467334,246.0718925941966 439.23621489987954,242.98397574707667 440.5337442920049,225.65179731485492 441.33479632237334,212.90168904287572 441.86313286700073,206.32741446513643 442.2541300257019,201.74534430489388 442.77598535565846,205.03248159376352 444.7440735650171,241.68904287570376 445.3997620515952,240.79255088783023 446.66857816520735,240.29449978345605 448.02701975069385,245.87267215244694 449.4751235869188,252.3473365093114 450.8899205307307,252.74577739281074 451.5084394097856,255.13642269380685 452.2955876674095,252.3473365093114 453.0937062591126,243.5816370723257 454.03362217427764,233.91944564746643 454.8273823061944,227.94283239497616 455.6978600566362,218.9779125162408 456.1308108763207,212.80207882200085 456.5846681665049,207.12429623213512 456.965226500873,212.90168904287572 458.38668672747303,199.85275010827198 459.79970238496287,187.50108271979207 460.72839394409016,182.32135123430055 461.61072439496684,191.18666089216111 464.1370604303924,143.37375487223903 465.73443640690436,152.5378951927241 467.4867280158669,158.6141186660892 467.7508868784466,168.8739714161975 468.280713231661,166.98137721957556 468.8715715812643,185.90731918579473 469.6867294503474,204.83326115201385 470.823571413603,196.36639237765263 472.5392410253219,198.15937635339975 474.85856245192844,217.28453876136857 475.8031965877849,226.6478995236033 477.7754259835897,216.38804677349503 478.72078494073156,216.18882633174533 480.2862528790129,217.58336942399308 483.3920914611733,230.83152880034646 485.4367887535433,180.32914681680379 487.2974085921814,152.63750541359894 489.65817213817667,132.01818969250758 491.5596328901281,165.48722390645298 492.24740469325707,184.512776093547 494.587045299936,150.94413165872672 495.4386673843552,161.3035946297098 496.98691982768855,120.86184495452576 497.34218809939995,118.57080987440449 498.5325791937795,143.27414465136422 498.86606048987625,153.43438718059764 500.38487143315535,120.1645734084019 501.99237672874784,116.18016457340838 503.5933120492316,91.277609354699 504.2199219106531,94.36552620181897 504.79295483632603,116.08055435253357 506.0322647438199,98.25032481593763 506.4494716116279,97.15461238631443 507.831915926724,61.693373754872226 508.34389481332704,60.0 508.7725789040217,81.11736682546558 510.58901689323596,156.92074491121699 512.40545532815,193.5773061931572 513.0672382963506,217.78258986574275 515.8556404117919,253.84148982243397 516.45868674906,253.84148982243397 516.7942115541157,253.54265915980943 517.1563038846523,253.14421827631008 517.656510962506,251.5504547423127 517.9015889812322,251.05240363793848 518.1986698406183,250.45474231268946 518.6218290038246,248.26331745344305 520.032727351515,235.7124296232135 520.9541553078709,226.847119965353 521.9352950749176,225.95062797747943 523.0965286402918,225.8510177566046 524.1984874843579,230.1342572542226 526.1684737018567,243.5816370723257 527.4597972155707,253.64226938068427 527.9883640061648,259.0212213079255 531.2910772845139,271.47249891728023 531.9371855836539,272.26938068427893 532.340592132542,272.6678215677783 532.8175228395876,270.87483759203116 535.6035254902135,218.47986141186664 539.0359611538122,239.49761801645735 540.2055604645132,260.01732351667386 542.2186816721264,254.23993070593332 544.1392546359585,249.85708098744044 544.7764522074056,248.26331745344305 545.3436254683706,244.27890861844955 547.1635657774136,245.27501082719792 548.283126200428,249.65786054569077 549.2648322715979,253.7418796015591 549.9511543979495,256.5309657860546 551.9187361502061,257.52706799480296 554.6220679096023,251.45084452143786 556.0648795725906,244.1792983975747 557.7240014355579,237.10697271546124 560.8282859018719,226.4486790818536 561.425034971918,225.65179731485492 563.3520021546136,242.28670420095278 565.2789674479188,242.784755305327 567.0692127547536,238.50151580770898 568.8594587196776,244.07968817669988 570.0641287034512,253.34343871805976 573.0420973118232,251.65006496318753 574.9609735352142,251.5504547423127 576.8798490830948,240.29449978345605 579.3286488165741,245.97228237332178 581.7774485500822,256.33174534430486 584.2262476917443,267.18925941966216 585.619477772028,275.5565179731486 586.2401399530529,280.6366392377653 587.4578166109939,286.11520138588133 590.8113826887148,287.50974447812905 592.6366775284479,283.72455608488525 594.1181699886544,268.1853616284106 595.928721539512,250.2555218709398 597.7392723883985,244.57773928107406 599.8603591856038,262.7067994802945 601.9984614267465,271.9705500216544 604.1365642322376,268.7830229536596 607.5681266932041,238.70073624945863 609.4272627859651,237.70463404071026 611.2863988271206,245.87267215244694 614.5149099424751,238.6011260285838 617.7434204533566,233.3217843222174 620.26580002535,256.23213512343006 622.7881795974325,275.05846686877436 625.3105594400989,271.9705500216544 627.6720710413503,264.4997834560416 630.0335826426204,262.00952793417065 632.3950950433749,259.8181030749242 635.4496805669368,249.25941966219142 638.5042663063267,235.41359896058898 640.347168224041,249.06019922044175 641.8313370343861,250.95279341706367 643.1517249644504,247.067994802945 645.5317069061884,235.51320918146385 647.9116883420837,219.7747942832395 649.7270067218406,213.30012992637506 651.542324298561,218.9779125162408 654.1062462229224,239.1987873538328 656.6701681472609,240.39411000433088 659.2340906602115,238.1030749242096 661.2096671105983,248.76136855781724 661.613028111442,246.7691641403205 663.5392424179487,238.1030749242096 666.9340583385355,240.9917713295799 670.3288742591361,227.34517106972714 673.7236904866709,214.79428323949764 676.6732369264012,231.82763100909483 679.6227841461674,247.067994802945 680.9879879149211,250.95279341706367 682.4317159546035,249.06019922044175 684.3404665949431,235.41359896058898 687.3835460002922,249.25941966219142 690.4266265793802,259.8181030749242 693.9119563678789,264.10134257254225 695.6893011095968,266.29276743178866 697.4666462369978,271.9705500216544 699.2696414331956,275.85534863577305 701.0726366169049,269.6795149415331 703.0755854638438,242.68514508445213 705.0785358918935,233.3217843222174 708.291636874077,240.89216110870507 711.5047382003924,245.87267215244694 713.8854397229629,234.81593763533996 716.2661412455492,248.6617583369424 718.6468427416028,268.7830229536596 721.8597941544897,267.58770030316157 725.0727456868096,244.57773928107406 726.8696932679063,252.3473365093114 728.6666410402032,268.1853616284106 730.1871201441118,284.2226071892594 732.7298468090976,288.90428757037677 735.2725737382007,286.11520138588133 736.5328112745331,280.6366392377653 737.1640445862279,275.5565179731486 738.5825113175227,267.18925941966216 741.0166813405233,256.33174534430486 743.4508513635332,245.97228237332178 745.8850214623845,240.29449978345605 748.3429163200744,252.3473365093114 750.8008108133427,247.9644867908185 752.7441275950396,253.34343871805976 753.9487976001121,244.07968817669988 755.9801412488715,237.5054135989606 758.0114863364374,245.37462104807275 761.3452485527372,225.65179731485492 761.9419976227831,226.4486790818536 765.1227033641673,237.70463404071026 766.7433602809708,244.1792983975747 768.187089095021,251.05240363793848 770.8547726217961,257.52706799480296 772.6702161148405,256.5309657860546 774.4856602182323,249.65786054569077 775.6406378668408,244.27890861844955 777.3928143558065,242.784755305327 778.0323890696359,248.26331745344305 778.6520320832483,248.06409701169338 780.6428649114227,254.23993070593332 782.6559863531421,257.62667821567777 785.579534573644,196.16717193590296 786.2679627023817,173.45604157644001 786.8939467310576,148.05543525335645 787.5498789768012,129.62754439151146 788.0037282561279,122.7544391511477 788.6398909595313,109.3070593330446 790.0,135.2057167605024" fill="none" stroke="#4a9eff" stroke-width="2"/><circle cx="235.30765506185054" cy="320" r="6" fill="#FF5722"/><text x="235.30765506185054" y="338" text-anchor="middle" fill="#FF5722" font-size="9" font-family="Arial">km5</text><circle cx="410.6153101237011" cy="320" r="6" fill="#FF5722"/><text x="410.6153101237011" y="338" text-anchor="middle" fill="#FF5722" font-size="9" font-family="Arial">km10</text><circle cx="585.9229651855517" cy="320" r="6" fill="#FF5722"/><text x="585.9229651855517" y="338" text-anchor="middle" fill="#FF5722" font-size="9" font-family="Arial">km15</text><text x="60" y="335" fill="#4CAF50" font-size="10" font-family="Arial">T2: Bar + Gel</text><text x="15" y="175" text-anchor="middle" fill="#888" font-size="11" font-family="Arial" transform="rotate(-90, 15, 175)">Elevation (m)</text><text x="425" y="342" text-anchor="middle" fill="#888" font-size="11" font-family="Arial">Distance (km)</text><text x="60" y="305" text-anchor="middle" fill="#666" font-size="10" font-family="Arial">0</text><text x="425" y="305" text-anchor="middle" fill="#666" font-size="10" font-family="Arial">10</text><text x="790" y="305" text-anchor="middle" fill="#666" font-size="10" font-family="Arial">21</text><text x="50" y="295" text-anchor="end" fill="#666" font-size="10" font-family="Arial">0</text><text x="50" y="65" text-anchor="end" fill="#666" font-size="10" font-family="Arial">23</text></svg>